<svg xmlns="http://www.w3.org/2000/svg" width="514.109" height="514.11" viewBox="0 0 514.109 514.11"><circle fill="#FFD764" cx="257.055" cy="257.055" r="257.055"/><path d="M169.415 230.11c0 14.36-11.641 26-26 26s-26-11.64-26-26m279.28 0c0 14.36-11.641 26-26 26s-26-11.64-26-26" fill="none" stroke="#353535" stroke-width="12" stroke-linecap="round" stroke-linejoin="round" stroke-miterlimit="10"/><path fill="none" stroke="#F15745" stroke-width="12" stroke-linecap="round" stroke-linejoin="round" stroke-miterlimit="10" d="M193.234 380.93c0-35.248 28.573-63.82 63.82-63.82s63.82 28.572 63.82 63.82"/><path fill="#4AA9D7" d="M395.495 328.11c0 9.665-7.835 17.5-17.5 17.5s-17.5-7.835-17.5-17.5 17.5-37.5 17.5-37.5 17.5 27.835 17.5 37.5z"/></svg>